<svg width="16" height="17" viewBox="0 0 16 17" fill="none" xmlns="http://www.w3.org/2000/svg">
<path fill-rule="evenodd" clip-rule="evenodd" d="M7.99997 10.5286L13.303 15.8326C13.5844 16.114 13.966 16.2721 14.364 16.2721C14.7619 16.2721 15.1436 16.114 15.425 15.8326C15.7064 15.5512 15.8645 15.1696 15.8645 14.7716C15.8645 14.3737 15.7064 13.992 15.425 13.7106L10.12 8.40761L15.424 3.10461C15.5632 2.96528 15.6737 2.79988 15.749 2.61786C15.8244 2.43584 15.8631 2.24076 15.8631 2.04376C15.8631 1.84676 15.8242 1.6517 15.7488 1.46971C15.6733 1.28772 15.5628 1.12238 15.4235 0.983111C15.2841 0.843845 15.1187 0.733385 14.9367 0.65804C14.7547 0.582694 14.5596 0.543938 14.3626 0.543984C14.1656 0.544031 13.9706 0.582879 13.7886 0.65831C13.6066 0.733741 13.4412 0.844279 13.302 0.983612L7.99997 6.28661L2.69697 0.983612C2.55867 0.840282 2.3932 0.725933 2.21024 0.647234C2.02727 0.568535 1.83046 0.527064 1.63129 0.52524C1.43212 0.523416 1.23459 0.561276 1.05021 0.63661C0.865828 0.711944 0.698298 0.823245 0.557394 0.964017C0.416489 1.10479 0.305031 1.27221 0.229522 1.45652C0.154014 1.64083 0.115968 1.83833 0.117604 2.0375C0.119241 2.23667 0.160526 2.43352 0.239052 2.61656C0.317578 2.7996 0.431772 2.96517 0.57497 3.10361L5.87997 8.40761L0.575971 13.7106C0.294576 13.992 0.13649 14.3737 0.13649 14.7716C0.13649 15.1696 0.294576 15.5512 0.575971 15.8326C0.857365 16.114 1.23902 16.2721 1.63697 16.2721C2.03492 16.2721 2.41658 16.114 2.69797 15.8326L7.99997 10.5276V10.5286Z" fill="black"/>
</svg>
