<svg width="19" height="19" viewBox="0 0 19 19" fill="none" xmlns="http://www.w3.org/2000/svg">
<path d="M0.154022 18.2329V13.9829L13.354 0.80791C13.554 0.624577 13.775 0.48291 14.017 0.38291C14.259 0.28291 14.513 0.23291 14.779 0.23291C15.0457 0.23291 15.304 0.28291 15.554 0.38291C15.804 0.48291 16.0207 0.63291 16.204 0.83291L17.579 2.23291C17.779 2.41624 17.925 2.63291 18.017 2.88291C18.109 3.13291 18.1547 3.38291 18.154 3.63291C18.154 3.89958 18.1084 4.15391 18.017 4.39591C17.9257 4.63791 17.7797 4.85858 17.579 5.05791L4.40402 18.2329H0.154022ZM14.754 5.03291L16.154 3.63291L14.754 2.23291L13.354 3.63291L14.754 5.03291Z" fill="#222222"/>
</svg>
