<svg width="356" height="118" viewBox="0 0 356 118" fill="none" xmlns="http://www.w3.org/2000/svg">
<path d="M14.9603 93.6543V32.2143L21.6803 38.9343H1.52033V26.4543H30.5123V93.6543H14.9603ZM68.4901 94.8063C63.1141 94.8063 57.9621 94.1023 53.0341 92.6943C48.1061 91.2223 44.1381 89.3343 41.1301 87.0303L46.4101 75.3183C49.2901 77.3663 52.6821 79.0623 56.5861 80.4063C60.5541 81.6863 64.5541 82.3263 68.5861 82.3263C71.6581 82.3263 74.1221 82.0383 75.9781 81.4623C77.8981 80.8223 79.3061 79.9583 80.2021 78.8703C81.0981 77.7823 81.5461 76.5343 81.5461 75.1263C81.5461 73.3343 80.8421 71.9263 79.4341 70.9023C78.0261 69.8143 76.1701 68.9503 73.8661 68.3103C71.5621 67.6063 69.0021 66.9663 66.1861 66.3903C63.4341 65.7503 60.6501 64.9823 57.8341 64.0863C55.0821 63.1903 52.5541 62.0383 50.2501 60.6303C47.9461 59.2223 46.0581 57.3663 44.5861 55.0623C43.1781 52.7583 42.4741 49.8143 42.4741 46.2303C42.4741 42.3903 43.4981 38.9023 45.5461 35.7663C47.6581 32.5663 50.7941 30.0383 54.9541 28.1823C59.1781 26.2623 64.4581 25.3023 70.7941 25.3023C75.0181 25.3023 79.1781 25.8143 83.2741 26.8383C87.3701 27.7983 90.9861 29.2703 94.1221 31.2543L89.3221 43.0623C86.1861 41.2703 83.0501 39.9583 79.9141 39.1263C76.7781 38.2303 73.7061 37.7823 70.6981 37.7823C67.6901 37.7823 65.2261 38.1343 63.3061 38.8383C61.3861 39.5423 60.0101 40.4703 59.1781 41.6223C58.3461 42.7103 57.9301 43.9903 57.9301 45.4623C57.9301 47.1903 58.6341 48.5983 60.0421 49.6863C61.4501 50.7103 63.3061 51.5423 65.6101 52.1823C67.9141 52.8223 70.4421 53.4623 73.1941 54.1023C76.0101 54.7423 78.7941 55.4783 81.5461 56.3103C84.3621 57.1423 86.9221 58.2623 89.2261 59.6703C91.5301 61.0783 93.3861 62.9343 94.7941 65.2383C96.2661 67.5423 97.0021 70.4543 97.0021 73.9743C97.0021 77.7503 95.9461 81.2063 93.8341 84.3423C91.7221 87.4783 88.5541 90.0063 84.3301 91.9263C80.1701 93.8463 74.8901 94.8063 68.4901 94.8063ZM137.965 41.2383C142.061 41.2383 145.709 42.0703 148.909 43.7343C152.173 45.3343 154.733 47.8303 156.589 51.2223C158.445 54.5503 159.373 58.8383 159.373 64.0863V93.6543H144.397V66.3903C144.397 62.2303 143.469 59.1583 141.613 57.1743C139.821 55.1903 137.261 54.1983 133.933 54.1983C131.565 54.1983 129.421 54.7103 127.501 55.7343C125.645 56.6943 124.173 58.1983 123.085 60.2463C122.061 62.2943 121.549 64.9183 121.549 68.1183V93.6543H106.573V22.4223H121.549V56.3103L118.189 51.9903C120.045 48.5343 122.701 45.8783 126.157 44.0223C129.613 42.1663 133.549 41.2383 137.965 41.2383ZM204.628 93.6543V83.5743L203.668 81.3663V63.3183C203.668 60.1183 202.676 57.6223 200.692 55.8303C198.772 54.0383 195.796 53.1423 191.764 53.1423C189.012 53.1423 186.292 53.5903 183.604 54.4863C180.98 55.3183 178.74 56.4703 176.884 57.9423L171.508 47.4783C174.324 45.4943 177.716 43.9583 181.684 42.8703C185.652 41.7823 189.684 41.2383 193.78 41.2383C201.652 41.2383 207.764 43.0943 212.116 46.8063C216.468 50.5183 218.644 56.3103 218.644 64.1823V93.6543H204.628ZM188.884 94.4223C184.852 94.4223 181.396 93.7503 178.516 92.4063C175.636 90.9983 173.428 89.1103 171.892 86.7423C170.356 84.3743 169.588 81.7183 169.588 78.7743C169.588 75.7023 170.324 73.0143 171.796 70.7103C173.332 68.4063 175.732 66.6143 178.996 65.3343C182.26 63.9903 186.516 63.3183 191.764 63.3183H205.492V72.0543H193.396C189.876 72.0543 187.444 72.6303 186.1 73.7823C184.82 74.9343 184.18 76.3743 184.18 78.1023C184.18 80.0223 184.916 81.5583 186.388 82.7103C187.924 83.7983 190.004 84.3423 192.628 84.3423C195.124 84.3423 197.364 83.7663 199.348 82.6143C201.332 81.3983 202.772 79.6383 203.668 77.3343L205.972 84.2463C204.884 87.5743 202.9 90.1023 200.02 91.8303C197.14 93.5583 193.428 94.4223 188.884 94.4223ZM232.198 93.6543V42.0063H246.502V56.5983L244.486 52.3743C246.022 48.7263 248.486 45.9743 251.878 44.1183C255.27 42.1983 259.398 41.2383 264.262 41.2383V55.0623C263.622 54.9983 263.046 54.9663 262.534 54.9663C262.022 54.9023 261.478 54.8703 260.902 54.8703C256.806 54.8703 253.478 56.0543 250.918 58.4223C248.422 60.7263 247.174 64.3423 247.174 69.2703V93.6543H232.198ZM298.424 94.4223C292.536 94.4223 287.352 93.2703 282.872 90.9663C278.456 88.6623 275.032 85.5263 272.6 81.5583C270.168 77.5263 268.952 72.9503 268.952 67.8303C268.952 62.6463 270.136 58.0703 272.504 54.1023C274.936 50.0703 278.232 46.9343 282.392 44.6943C286.552 42.3903 291.256 41.2383 296.504 41.2383C301.56 41.2383 306.104 42.3263 310.136 44.5023C314.232 46.6143 317.464 49.6863 319.832 53.7183C322.2 57.6863 323.384 62.4543 323.384 68.0223C323.384 68.5983 323.352 69.2703 323.288 70.0383C323.224 70.7423 323.16 71.4143 323.096 72.0543H281.144V63.3183H315.224L309.464 65.9103C309.464 63.2223 308.92 60.8863 307.832 58.9023C306.744 56.9183 305.24 55.3823 303.32 54.2943C301.4 53.1423 299.16 52.5663 296.6 52.5663C294.04 52.5663 291.768 53.1423 289.784 54.2943C287.864 55.3823 286.36 56.9503 285.272 58.9983C284.184 60.9823 283.64 63.3503 283.64 66.1023V68.4063C283.64 71.2223 284.248 73.7183 285.464 75.8943C286.744 78.0063 288.504 79.6383 290.744 80.7903C293.048 81.8783 295.736 82.4223 298.808 82.4223C301.56 82.4223 303.96 82.0063 306.008 81.1743C308.12 80.3423 310.04 79.0943 311.768 77.4303L319.736 86.0703C317.368 88.7583 314.392 90.8383 310.808 92.3103C307.224 93.7183 303.096 94.4223 298.424 94.4223Z" fill="white"/>
<path d="M341.407 30.4205H337.74C337.428 30.4205 337.272 30.4205 337.14 30.4339C336.526 30.4949 335.953 30.7665 335.517 31.2024C335.081 31.6383 334.81 32.2116 334.749 32.825C334.735 32.9571 334.735 33.1132 334.735 33.4255C334.735 33.7991 334.735 33.9859 334.751 34.134C334.829 34.8258 335.173 35.46 335.712 35.9012C336.25 36.3425 336.94 36.5558 337.633 36.4958C337.78 36.4825 337.964 36.4464 338.33 36.373L338.725 36.293C339.232 36.1929 339.487 36.1422 339.7 36.0595C340.13 35.8934 340.51 35.6188 340.802 35.2624C341.095 34.9061 341.29 34.4801 341.368 34.0259C341.407 33.7991 341.407 33.5402 341.407 33.0238V21.4523C341.407 19.3574 341.407 18.3113 342.011 17.5734C342.617 16.8355 343.643 16.63 345.698 16.219L348.367 15.6853C351.32 15.0942 352.797 14.7993 353.774 15.5999C354.75 16.4005 354.75 17.907 354.75 20.9186V21.0801M354.75 21.0801V27.7518M354.75 21.0801L341.407 23.7488M354.75 27.7518V30.3538C354.75 30.8729 354.75 31.1304 354.71 31.3572C354.632 31.8111 354.437 32.2369 354.146 32.5932C353.854 32.9496 353.475 33.2243 353.045 33.3908C352.83 33.4735 352.577 33.5242 352.068 33.6256L351.673 33.7057C351.308 33.7777 351.125 33.8151 350.976 33.8271C350.282 33.8868 349.593 33.6732 349.055 33.232C348.517 32.7908 348.172 32.1569 348.095 31.4653C348.079 31.3185 348.079 31.1317 348.079 30.7581C348.079 30.4445 348.079 30.2884 348.092 30.1563C348.153 29.5429 348.425 28.9696 348.861 28.5337C349.296 28.0978 349.87 27.8262 350.483 27.7652C350.615 27.7518 350.771 27.7518 351.084 27.7518H354.75Z" stroke="white" stroke-width="2.5"/>
</svg>
