<svg width="200" height="170" viewBox="0 0 200 170" fill="none" xmlns="http://www.w3.org/2000/svg">
<path d="M200 85C200 88.1826 198.736 91.2349 196.485 93.4853C194.235 95.7357 191.183 97 188 97H40.9999L92.5199 148.51C94.7743 150.764 96.0408 153.822 96.0408 157.01C96.0408 160.198 94.7743 163.256 92.5199 165.51C90.2656 167.764 87.2081 169.031 84.0199 169.031C80.8318 169.031 77.7743 167.764 75.5199 165.51L3.51994 93.51C2.40122 92.3952 1.51358 91.0705 0.907913 89.6118C0.302249 88.1532 -0.00952148 86.5894 -0.00952148 85.01C-0.00952148 83.4306 0.302249 81.8668 0.907913 80.4082C1.51358 78.9496 2.40122 77.6249 3.51994 76.51L75.5199 4.51001C76.6362 3.39377 77.9613 2.50833 79.4198 1.90422C80.8782 1.30012 82.4413 0.989197 84.0199 0.989197C85.5985 0.989197 87.1617 1.30012 88.6201 1.90422C90.0785 2.50833 91.4037 3.39377 92.5199 4.51001C93.6362 5.62625 94.5216 6.95141 95.1257 8.40984C95.7298 9.86828 96.0408 11.4314 96.0408 13.01C96.0408 14.5886 95.7298 16.1517 95.1257 17.6102C94.5216 19.0686 93.6362 20.3938 92.5199 21.51L40.9999 73H188C191.183 73 194.235 74.2643 196.485 76.5147C198.736 78.7652 200 81.8174 200 85Z" fill="black"/>
</svg>
