<svg width="5" height="7" viewBox="0 0 5 7" fill="none" xmlns="http://www.w3.org/2000/svg">
<path fill-rule="evenodd" clip-rule="evenodd" d="M4.07032 3.4833C4.18737 3.60049 4.25311 3.75935 4.25311 3.92497C4.25311 4.0906 4.18737 4.24945 4.07032 4.36664L1.71366 6.72414C1.59641 6.84133 1.43741 6.90715 1.27163 6.90711C1.10586 6.90707 0.946891 6.84118 0.829698 6.72393C0.712506 6.60668 0.646689 6.44768 0.646729 6.28191C0.646768 6.11613 0.712659 5.95716 0.829907 5.83997L2.74491 3.92497L0.829907 2.00997C0.716001 1.89215 0.652929 1.7343 0.654275 1.57043C0.655622 1.40655 0.721278 1.24976 0.837104 1.13383C0.95293 1.01789 1.10966 0.952089 1.27353 0.950588C1.4374 0.949087 1.59531 1.01201 1.71324 1.1258L4.07074 3.48289L4.07032 3.4833Z" fill="black"/>
</svg>
