<svg width="6" height="10" viewBox="0 0 6 10" fill="none" xmlns="http://www.w3.org/2000/svg">
<path fill-rule="evenodd" clip-rule="evenodd" d="M5.00822 4.38532C5.17548 4.55279 5.26943 4.7798 5.26943 5.01649C5.26943 5.25318 5.17548 5.48019 5.00822 5.64765L1.64042 9.01665C1.47287 9.18412 1.24565 9.27817 1.00875 9.27812C0.771845 9.27806 0.54467 9.1839 0.377196 9.01635C0.209722 8.84879 0.115667 8.62157 0.115723 8.38467C0.115779 8.14777 0.20994 7.9206 0.377494 7.75312L3.11413 5.01649L0.377494 2.27985C0.214717 2.11148 0.124584 1.88591 0.126507 1.65172C0.128431 1.41754 0.222258 1.19347 0.387779 1.0278C0.553301 0.86212 0.777272 0.768082 1.01146 0.765937C1.24564 0.763792 1.4713 0.853713 1.63982 1.01633L5.00882 4.38473L5.00822 4.38532Z" fill="black"/>
</svg>
